<svg width="43" height="51" viewBox="0 0 43 51" fill="none" xmlns="http://www.w3.org/2000/svg">
<path opacity="0.7" d="M42.7376 47.6839L30.2464 32.8688C32.6156 29.3997 34.0417 24.9894 34.0417 20.1876C34.0417 9.05621 26.4061 0 17.0208 0C7.63554 0 0 9.05621 0 20.1876C0 31.319 7.63563 40.3752 17.0209 40.3752C21.0695 40.3752 24.788 38.6836 27.7129 35.8737L40.2041 50.6888C40.5541 51.1037 41.1211 51.1037 41.4711 50.6888L42.7377 49.1865C43.0875 48.7716 43.0875 48.0988 42.7376 47.6839ZM17.0209 36.1251C9.61103 36.1251 3.58337 28.976 3.58337 20.1876C3.58337 11.3991 9.61103 4.25004 17.0209 4.25004C24.4308 4.25004 30.4584 11.3991 30.4584 20.1876C30.4584 28.976 24.4308 36.1251 17.0209 36.1251Z" fill="black"/>
</svg>
