<svg width="12" height="12" viewBox="0 0 12 12" fill="none" xmlns="http://www.w3.org/2000/svg">
<path d="M0.974425 0.166427C0.751512 -0.0554757 0.390098 -0.0554757 0.167185 0.166427C-0.0557282 0.388329 -0.0557282 0.748104 0.167185 0.970006L5.19276 5.97279L5.16543 6L5.19276 6.02721L0.167185 11.03C-0.0557283 11.2519 -0.0557283 11.6117 0.167185 11.8336C0.390098 12.0555 0.751512 12.0555 0.974425 11.8336L6 6.83079L11.0256 11.8336C11.2485 12.0555 11.6099 12.0555 11.8328 11.8336C12.0557 11.6117 12.0557 11.2519 11.8328 11.03L6.80724 6.02721L6.83457 6L6.80724 5.97279L11.8328 0.970006C12.0557 0.748104 12.0557 0.388329 11.8328 0.166427C11.6099 -0.0554757 11.2485 -0.0554757 11.0256 0.166427L6 5.16921L0.974425 0.166427Z" fill="white"/>
</svg>
