<svg width="50" height="50" viewBox="0 0 50 50" fill="none" xmlns="http://www.w3.org/2000/svg">
<circle cx="25" cy="25.0001" r="25" fill="white"/>
<path d="M37.9339 20.0761C37.873 18.7973 37.6496 17.9181 37.3295 17.1563C36.9993 16.3476 36.4912 15.6236 35.8257 15.0218C35.1754 14.4105 34.388 13.9356 33.5244 13.6347C32.6965 13.3385 31.7515 13.1317 30.3697 13.0753C28.9777 13.0141 28.5357 13 25.0051 13C21.4744 13 21.0325 13.0141 19.6456 13.0705C18.2638 13.1269 17.3139 13.3339 16.4909 13.63C15.617 13.9356 14.8347 14.4058 14.1844 15.0218C13.524 15.6236 13.0111 16.3524 12.6858 17.1517C12.3657 17.9181 12.1423 18.7925 12.0814 20.0714C12.0153 21.3598 12 21.7688 12 25.0365C12 28.3042 12.0153 28.7132 12.0762 29.9968C12.1371 31.2757 12.3608 32.1549 12.6809 32.9167C13.0111 33.7254 13.524 34.4494 14.1844 35.0512C14.8347 35.6625 15.6222 36.1374 16.4858 36.4383C17.3139 36.7345 18.2586 36.9413 19.6406 36.9977C21.0273 37.0543 21.4694 37.0682 25.0001 37.0682C28.5308 37.0682 28.9727 37.0543 30.3596 36.9977C31.7414 36.9413 32.6913 36.7345 33.5142 36.4383C35.2619 35.8129 36.6437 34.534 37.3193 32.9167C37.6392 32.1503 37.8629 31.2757 37.9238 29.9968C37.9847 28.7132 38 28.3042 38 25.0365C38 21.7688 37.9948 21.3598 37.9339 20.0761ZM35.5921 29.9028C35.5361 31.0783 35.3228 31.713 35.145 32.1361C34.7081 33.1847 33.8089 34.0168 32.676 34.4213C32.2188 34.5858 31.528 34.7833 30.263 34.8349C28.8913 34.8914 28.48 34.9054 25.0102 34.9054C21.5405 34.9054 21.1239 34.8914 19.7573 34.8349C18.4873 34.7833 17.8014 34.5858 17.3442 34.4213C16.7805 34.2284 16.2673 33.9228 15.8508 33.5232C15.4189 33.1329 15.0887 32.6627 14.8804 32.1409C14.7026 31.7178 14.4892 31.0783 14.4335 29.9076C14.3724 28.6381 14.3573 28.2572 14.3573 25.0459C14.3573 21.8345 14.3724 21.449 14.4335 20.1843C14.4892 19.0089 14.7026 18.3741 14.8804 17.951C15.0887 17.429 15.4189 16.9542 15.8559 16.5686C16.2774 16.1689 16.7854 15.8633 17.3494 15.6706C17.8066 15.5061 18.4976 15.3086 19.7624 15.2568C21.1341 15.2005 21.5456 15.1863 25.0152 15.1863C28.4901 15.1863 28.9015 15.2005 30.2681 15.2568C31.5382 15.3086 32.224 15.5061 32.6812 15.6706C33.2449 15.8633 33.7581 16.1689 34.1746 16.5686C34.6065 16.9588 34.9367 17.429 35.145 17.951C35.3228 18.3741 35.5361 19.0135 35.5921 20.1843C35.653 21.4538 35.6683 21.8345 35.6683 25.0459C35.6683 28.2572 35.653 28.6333 35.5921 29.9028Z" fill="#272B2A"/>
<path d="M25.0052 18.8541C21.3172 18.8541 18.3249 21.6234 18.3249 25.0369C18.3249 28.4504 21.3172 31.2196 25.0052 31.2196C28.6935 31.2196 31.6856 28.4504 31.6856 25.0369C31.6856 21.6234 28.6935 18.8541 25.0052 18.8541ZM25.0052 29.0475C22.6126 29.0475 20.6718 27.2515 20.6718 25.0369C20.6718 22.8223 22.6126 21.0263 25.0052 21.0263C27.398 21.0263 29.3386 22.8223 29.3386 25.0369C29.3386 27.2515 27.398 29.0475 25.0052 29.0475Z" fill="#272B2A"/>
<path d="M33.5092 18.6089C33.5092 19.4061 32.8108 20.0524 31.9494 20.0524C31.0882 20.0524 30.3898 19.4061 30.3898 18.6089C30.3898 17.8116 31.0882 17.1655 31.9494 17.1655C32.8108 17.1655 33.5092 17.8116 33.5092 18.6089Z" fill="#272B2A"/>
</svg>
