<svg width="50" height="50" viewBox="0 0 50 50" fill="none" xmlns="http://www.w3.org/2000/svg">
<circle cx="25" cy="25.0001" r="25" fill="white"/>
<path d="M34.4052 26.8953C33.9686 26.2303 34.0935 25.9344 34.4052 25.34C34.4108 25.3332 38.0143 19.3265 38.3855 17.2894L38.3878 17.2881C38.5723 16.5457 38.3878 16.0001 37.4956 16.0001H34.5435C33.792 16.0001 33.4455 16.4683 33.2599 16.9922C33.2599 16.9922 31.7568 21.3323 29.6305 24.1457C28.9442 24.9586 28.627 25.2192 28.2523 25.2192C28.0678 25.2192 27.7809 24.9586 27.7809 24.2163V17.2881C27.7809 16.3978 27.5705 16.0001 26.9484 16.0001H22.3065C21.8351 16.0001 21.555 16.4154 21.555 16.8022C21.555 17.6463 22.6181 17.8404 22.7284 20.2154V25.3685C22.7284 26.4976 22.5585 26.7053 22.1816 26.7053C21.1781 26.7053 18.7424 22.3475 17.2989 17.36C17.0075 16.3923 16.7229 16.0015 15.9658 16.0015H13.0125C12.1699 16.0015 12 16.4697 12 16.9936C12 17.9191 13.0035 22.5212 16.6667 28.6012C19.108 32.7513 22.5461 35.0001 25.6737 35.0001C27.5537 35.0001 27.7832 34.5007 27.7832 33.6416C27.7832 29.6761 27.6133 29.3015 28.5549 29.3015C28.9915 29.3015 29.743 29.5621 31.4981 31.5638C33.504 33.9375 33.8336 35.0001 34.9564 35.0001H37.9085C38.7501 35.0001 39.1764 34.5007 38.9312 33.5154C38.3698 31.4431 34.5762 27.1803 34.4052 26.8953Z" fill="#272B2A"/>
</svg>
