<svg width="283" height="54" viewBox="0 0 283 54" fill="none" xmlns="http://www.w3.org/2000/svg">
<path d="M83.2854 25.1049L88.067 16.2743V25.1049H91.2869V11.8011H87.6429L82.8612 20.6317V11.8011H79.6414V25.1049H83.2854ZM105.307 25.1049V11.8011H102.087V16.9684H97.2088V11.8011H93.989V25.1049H97.2088V19.687H102.087V25.1049H105.307ZM118.159 14.5197V11.8011H107.034V14.5197H110.986V25.1049H114.206V14.5197H118.159ZM129.499 25.1049V22.4634H123.117V19.5906H127.86V17.0069H123.117V14.4426H129.422V11.8011H119.897V25.1049H129.499ZM142.482 16.3321C142.482 13.4978 141.016 11.8011 137.873 11.8011H131.684V25.1049H134.904V20.7474H137.873C141.016 20.7474 142.482 19.1471 142.482 16.3321ZM139.165 16.6406C139.165 17.5275 138.606 18.0674 137.507 18.0674H134.904V14.4812H137.507C138.625 14.4812 139.165 15.0403 139.165 15.9851V16.6406ZM155.674 25.1049V11.8011H152.454V16.9684H147.576V11.8011H144.356V25.1049H147.576V19.687H152.454V25.1049H155.674ZM167.967 25.1049V22.4634H161.585V19.5906H166.328V17.0069H161.585V14.4426H167.89V11.8011H158.365V25.1049H167.967ZM180.313 14.5197V11.8011H169.188V14.5197H173.14V25.1049H176.36V14.5197H180.313ZM197.669 16.3321C197.669 13.4978 196.204 11.8011 193.061 11.8011H186.872V25.1049H190.092V20.7474H193.061C196.204 20.7474 197.669 19.1471 197.669 16.3321ZM194.353 16.6406C194.353 17.5275 193.794 18.0674 192.695 18.0674H190.092V14.4812H192.695C193.813 14.4812 194.353 15.0403 194.353 15.9851V16.6406ZM209.145 25.1049V22.4634H202.763V19.5906H207.507V17.0069H202.763V14.4426H209.068V11.8011H199.544V25.1049H209.145ZM225.001 11.8011V22.3863H221.395V11.8011H218.156V22.3863H214.55V11.8011H211.33V25.1049H228.22V11.8011H225.001ZM240.514 25.1049V22.4634H234.132V19.5906H238.875V17.0069H234.132V14.4426H240.437V11.8011H230.913V25.1049H240.514ZM254.017 25.1049V11.8011H250.797V16.9684H245.919V11.8011H242.699V25.1049H245.919V19.687H250.797V25.1049H254.017ZM260.352 25.1049L265.134 16.2743V25.1049H268.354V11.8011H264.71L259.928 20.6317V11.8011H256.708V25.1049H260.352ZM270.766 16.1586C270.766 17.9903 271.538 19.3206 273.003 19.9955L270.477 25.1049H273.871L276.146 20.4968H278.247V25.1049H281.487V11.8011H275.606C272.521 11.8011 270.766 13.4786 270.766 16.1586ZM274.102 15.8501C274.102 14.8861 274.738 14.404 275.818 14.404H278.247V17.9131H275.818C274.719 17.9131 274.102 17.3733 274.102 16.39V15.8501Z" fill="white"/>
<path d="M90.3261 37.8392L88.1185 44.4911H88.9379L89.5645 42.5919H92.447L93.1218 44.4911H93.9895L91.6372 37.8392H90.3261ZM90.9624 38.3887L92.1964 41.8882H89.7959L90.9624 38.3887ZM94.9701 37.8392V44.4911H95.8377V38.5333H98.7491V37.8392H94.9701ZM103.945 44.4911V43.797H100.658V41.464H103.222V40.7699H100.658V38.5333H103.868V37.8392H99.7903V44.4911H103.945ZM110.128 44.4911V37.8392H109.26V40.7699H106.147V37.8392H105.279V44.4911H106.147V41.464H109.26V44.4911H110.128ZM116.295 38.5333V37.8392H111.166V38.5333H113.297V44.4911H114.165V38.5333H116.295ZM119.599 44.5875C121.103 44.5875 121.951 43.9898 122.173 42.6015H121.267C121.093 43.5656 120.544 43.8934 119.599 43.8934C118.278 43.8934 117.729 42.9582 117.729 41.464V40.847C117.729 39.3238 118.317 38.4369 119.599 38.4369C120.602 38.4369 121.113 38.8611 121.257 39.7769H122.163C121.951 38.3694 121.209 37.7428 119.599 37.7428C117.719 37.7428 116.823 38.9768 116.823 41.1651C116.823 43.3535 117.719 44.5875 119.599 44.5875ZM127.969 38.5333V37.8392H122.84V38.5333H124.971V44.4911H125.838V38.5333H127.969ZM133.708 42.6401C133.708 41.6953 133.216 41.194 132.464 41.0205C133.119 40.7988 133.467 40.2493 133.467 39.4973C133.467 38.3791 132.782 37.8392 131.5 37.8392H129.013V44.4911H131.654C133.023 44.4911 133.708 43.8644 133.708 42.6401ZM132.811 42.3895V42.804C132.811 43.4788 132.377 43.797 131.577 43.797H129.88V41.4254H131.577C132.474 41.4254 132.811 41.8014 132.811 42.3895ZM132.56 39.4202V39.7866C132.56 40.4325 132.194 40.7699 131.51 40.7699H129.88V38.5333H131.51C132.184 38.5333 132.56 38.8322 132.56 39.4202ZM140.495 41.1651C140.495 38.89 139.569 37.7428 137.593 37.7428C135.617 37.7428 134.701 38.89 134.701 41.1651C134.701 43.4306 135.617 44.5875 137.593 44.5875C139.569 44.5875 140.495 43.4306 140.495 41.1651ZM139.588 41.464C139.588 43.0161 138.981 43.8934 137.593 43.8934C136.205 43.8934 135.607 43.0161 135.607 41.464V40.847C135.607 39.3045 136.205 38.4369 137.593 38.4369C138.981 38.4369 139.588 39.3045 139.588 40.847V41.464ZM148.669 39.9022C148.669 38.6297 147.995 37.8392 146.51 37.8392H144.273V44.4911H145.141V41.9171H146.51C147.995 41.9171 148.669 41.1555 148.669 39.9022ZM147.763 40.1047C147.763 40.7988 147.349 41.1844 146.452 41.1844H145.141V38.5719H146.452C147.349 38.5719 147.763 38.9575 147.763 39.6901V40.1047ZM154.058 44.4911V43.797H150.771V41.464H153.335V40.7699H150.771V38.5333H153.981V37.8392H149.903V44.4911H154.058ZM159.788 39.8637C159.788 38.6104 159.171 37.8392 157.628 37.8392H155.392V44.4911H156.26V41.84H157.619L159.055 44.4911H160.058L158.544 41.7243C159.422 41.4736 159.788 40.8084 159.788 39.8637ZM158.882 40.0565C158.882 40.7313 158.467 41.1073 157.571 41.1073H156.26V38.5719H157.571C158.467 38.5719 158.882 38.9478 158.882 39.6419V40.0565ZM162.153 44.4911V41.5507H164.688V40.847H162.153V38.5333H165.267V37.8392H161.285V44.4911H162.153ZM171.939 41.1651C171.939 38.89 171.013 37.7428 169.037 37.7428C167.061 37.7428 166.145 38.89 166.145 41.1651C166.145 43.4306 167.061 44.5875 169.037 44.5875C171.013 44.5875 171.939 43.4306 171.939 41.1651ZM171.033 41.464C171.033 43.0161 170.425 43.8934 169.037 43.8934C167.649 43.8934 167.051 43.0161 167.051 41.464V40.847C167.051 39.3045 167.649 38.4369 169.037 38.4369C170.425 38.4369 171.033 39.3045 171.033 40.847V41.464ZM177.704 39.8637C177.704 38.6104 177.087 37.8392 175.544 37.8392H173.308V44.4911H174.175V41.84H175.535L176.971 44.4911H177.974L176.46 41.7243C177.337 41.4736 177.704 40.8084 177.704 39.8637ZM176.797 40.0565C176.797 40.7313 176.383 41.1073 175.486 41.1073H174.175V38.5719H175.486C176.383 38.5719 176.797 38.9478 176.797 39.6419V40.0565ZM180.628 37.8392H179.201V44.4911H180.02V38.5526L181.871 43.4306H182.932L184.792 38.5526V44.4911H185.66V37.8392H184.291L182.45 42.6594L180.628 37.8392ZM188.848 37.8392L186.641 44.4911H187.46L188.087 42.5919H190.969L191.644 44.4911H192.512L190.159 37.8392H188.848ZM189.484 38.3887L190.718 41.8882H188.318L189.484 38.3887ZM194.63 37.8392H193.492V44.4911H194.321V39.0153L197.252 44.4911H198.399V37.8392H197.57V43.3439L194.63 37.8392ZM202.54 44.5875C204.044 44.5875 204.893 43.9898 205.114 42.6015H204.208C204.035 43.5656 203.485 43.8934 202.54 43.8934C201.22 43.8934 200.67 42.9582 200.67 41.464V40.847C200.67 39.3238 201.258 38.4369 202.54 38.4369C203.543 38.4369 204.054 38.8611 204.198 39.7769H205.105C204.893 38.3694 204.15 37.7428 202.54 37.7428C200.66 37.7428 199.764 38.9768 199.764 41.1651C199.764 43.3535 200.66 44.5875 202.54 44.5875ZM210.592 44.4911V43.797H207.305V41.464H209.869V40.7699H207.305V38.5333H210.515V37.8392H206.437V44.4911H210.592ZM215.762 37.8392H214.336V44.4911H215.155V38.5526L217.006 43.4306H218.067L219.927 38.5526V44.4911H220.795V37.8392H219.426L217.585 42.6594L215.762 37.8392ZM223.983 37.8392L221.775 44.4911H222.595L223.221 42.5919H226.104L226.779 44.4911H227.646L225.294 37.8392H223.983ZM224.619 38.3887L225.853 41.8882H223.453L224.619 38.3887ZM233.023 39.9022C233.023 38.6297 232.348 37.8392 230.863 37.8392H228.627V44.4911H229.494V41.9171H230.863C232.348 41.9171 233.023 41.1555 233.023 39.9022ZM232.117 40.1047C232.117 40.7988 231.702 41.1844 230.806 41.1844H229.494V38.5719H230.806C231.702 38.5719 232.117 38.9575 232.117 39.6901V40.1047ZM235.124 37.8392H234.257V44.4911H235.124V41.5218H235.789L238.094 44.4911H239.154L236.522 41.1073L238.942 37.8392H237.959L235.789 40.7892H235.124V37.8392ZM244.362 44.4911V43.797H241.074V41.464H243.639V40.7699H241.074V38.5333H244.284V37.8392H240.207V44.4911H244.362ZM250.168 38.5333V37.8392H245.04V38.5333H247.17V44.4911H248.038V38.5333H250.168ZM252.215 44.4911L255.29 38.9478V44.4911H256.158V37.8392H255.145L252.08 43.3824V37.8392H251.212V44.4911H252.215ZM262.708 44.4911V37.8392H261.84V40.7699H258.726V37.8392H257.859V44.4911H258.726V41.464H261.84V44.4911H262.708ZM264.402 37.8392V44.4911H265.269V38.5333H268.181V37.8392H264.402ZM269.878 37.8392L267.671 44.4911H268.49L269.117 42.5919H271.999L272.674 44.4911H273.542L271.189 37.8392H269.878ZM270.514 38.3887L271.748 41.8882H269.348L270.514 38.3887Z" fill="white"/>
<path d="M37.059 6.13241C36.9135 5.89529 36.1216 4.65036 34.4085 4.20575C32.7276 3.76113 31.37 4.39842 31.0953 4.5318C31.0468 4.56144 30.9983 4.57626 30.9498 4.6059C31.3054 4.11683 31.8226 3.52401 32.5337 2.91637C32.5337 2.91637 33.6004 1.99749 34.8933 1.34539C40.2752 -1.38158 46.9662 0.174572 50.3117 4.76893C50.2955 4.76893 50.2955 4.78375 50.2793 4.78375C56.7279 15.3508 63.1764 25.903 69.625 36.47C64.8734 36.4552 60.1219 36.4403 55.3703 36.4255C53.4794 33.2984 51.5884 30.1713 49.6975 27.0441C48.3561 24.8211 47.0147 22.6128 45.6732 20.3897L37.059 6.13241Z" fill="white"/>
<path d="M30.9824 4.57566L31.0471 4.54602C33.1804 3.46412 35.8633 4.17551 37.0593 6.13182C38.0936 7.851 39.128 9.55537 40.1623 11.2746C36.9461 16.1357 33.7138 20.982 30.4976 25.8432C28.2834 22.1677 26.0531 18.4922 23.8389 14.8315C26.2147 11.4079 28.6067 7.99921 30.9824 4.57566Z" fill="#DEDEDE"/>
<path d="M32.566 47.8676C32.7115 48.1047 33.5034 49.3496 35.2165 49.7942C36.8974 50.2389 38.255 49.6016 38.5297 49.4682C38.5782 49.4385 38.6267 49.4237 38.6752 49.3941C38.3196 49.8832 37.8024 50.476 37.0913 51.0836C37.0913 51.0836 36.0246 52.0025 34.7317 52.6546C29.3498 55.3816 22.6588 53.8254 19.3133 49.2311C19.3295 49.2311 19.3295 49.2162 19.3457 49.2162C12.8971 38.6491 6.44856 28.0969 0 17.5298C4.75157 17.5446 9.50314 17.5594 14.2547 17.5742C16.1456 20.7014 18.0366 23.8285 19.9275 26.9557C21.2689 29.1788 22.6103 31.387 23.9518 33.6101L32.566 47.8676Z" fill="white"/>
<path d="M38.6407 49.4239L38.5761 49.4535C36.4427 50.5354 33.7599 49.824 32.5639 47.8677C31.5295 46.1485 30.4952 44.4442 29.4608 42.725C32.677 37.8638 35.9094 33.0027 39.1256 28.1564C41.3397 31.8319 43.5701 35.5074 45.7842 39.168C43.4085 42.5916 41.0165 46.0003 38.6407 49.4239Z" fill="#DEDEDE"/>
</svg>
