<svg width="164" height="48" viewBox="0 0 164 48" fill="none" xmlns="http://www.w3.org/2000/svg">
<path d="M71.2366 20.2922H63.3046L61.7408 23.9636H58.704L65.8428 8.09952H68.7437L75.9052 23.9636H72.823L71.2366 20.2922ZM70.2621 17.9806L67.2706 11.0457L64.3017 17.9806H70.2621ZM89.1002 11.8616V23.9636H86.2673V14.2639H81.7347L81.6214 16.6661C81.5459 18.2677 81.3948 19.6123 81.1681 20.7002C80.9566 21.7729 80.5865 22.6265 80.0576 23.2611C79.544 23.8805 78.8338 24.1903 77.9273 24.1903C77.5043 24.1903 76.983 24.1072 76.3636 23.941L76.4996 21.5613C76.7111 21.6067 76.8924 21.6293 77.0435 21.6293C77.6176 21.6293 78.0482 21.4027 78.3353 20.9494C78.6223 20.4811 78.8036 19.9296 78.8792 19.295C78.9698 18.6454 79.0454 17.7237 79.1058 16.5302L79.3098 11.8616H89.1002ZM98.989 15.8503C100.53 15.8503 101.709 16.1978 102.524 16.8928C103.355 17.5878 103.771 18.5698 103.771 19.839C103.771 21.1685 103.318 22.1959 102.411 22.9211C101.505 23.6463 100.228 24.0014 98.5811 23.9863L92.9154 23.9636V11.8616H95.7482V15.8276L98.989 15.8503ZM98.3318 21.9013C99.1628 21.9164 99.7974 21.7426 100.236 21.38C100.674 21.0174 100.893 20.4886 100.893 19.7936C100.893 19.1137 100.681 18.6152 100.258 18.2979C99.8351 17.9806 99.193 17.8144 98.3318 17.7993L95.7482 17.7766V21.8786L98.3318 21.9013ZM114.719 14.2639H110.481V23.9636H107.648V14.2639H103.387V11.8616H114.719V14.2639ZM116.773 11.8616H119.606V19.839L126.292 11.8616H128.876V23.9636H126.043V15.9862L119.38 23.9636H116.773V11.8616ZM144.584 23.9636V15.9409L140.505 22.6945H139.281L135.27 15.9183V23.9636H132.686V11.8616H135.655L139.961 19.431L144.471 11.8616H147.123L147.145 23.9636H144.584ZM155.455 11.7256C157.238 11.7256 158.598 12.1562 159.534 13.0174C160.486 13.8635 160.962 15.1477 160.962 16.8701V23.9636H158.288V22.4905C157.94 23.0193 157.442 23.4273 156.792 23.7143C156.158 23.9863 155.387 24.1223 154.48 24.1223C153.574 24.1223 152.781 23.9712 152.101 23.669C151.421 23.3517 150.892 22.9211 150.514 22.3772C150.152 21.8182 149.971 21.1912 149.971 20.4962C149.971 19.4084 150.371 18.5396 151.172 17.8899C151.988 17.2252 153.264 16.8928 155.002 16.8928H158.129V16.7115C158.129 15.8654 157.872 15.2157 157.359 14.7624C156.86 14.3092 156.112 14.0826 155.115 14.0826C154.435 14.0826 153.763 14.1883 153.098 14.3998C152.448 14.6114 151.897 14.906 151.444 15.2837L150.333 13.2214C150.968 12.7379 151.731 12.3677 152.622 12.1109C153.514 11.854 154.458 11.7256 155.455 11.7256ZM155.07 22.0599C155.78 22.0599 156.407 21.9013 156.951 21.584C157.51 21.2516 157.903 20.7832 158.129 20.1789V18.7738H155.206C153.574 18.7738 152.758 19.3102 152.758 20.3829C152.758 20.8966 152.962 21.3045 153.37 21.6067C153.778 21.9088 154.344 22.0599 155.07 22.0599Z" fill="white"/>
<path d="M63.0288 40.8714C62.2624 40.8714 61.5746 40.7098 60.9652 40.3866C60.3558 40.0635 59.8803 39.6157 59.5387 39.0432C59.197 38.4615 59.0262 37.806 59.0262 37.0766C59.0262 36.3472 59.197 35.6962 59.5387 35.1238C59.8803 34.5513 60.3512 34.1035 60.9513 33.7804C61.5607 33.4572 62.2532 33.2956 63.0288 33.2956C63.7582 33.2956 64.3953 33.4434 64.94 33.7388C65.494 34.0343 65.9095 34.459 66.1865 35.013L64.8569 35.7886C64.6446 35.4469 64.3768 35.193 64.0536 35.0268C63.7397 34.8514 63.3935 34.7637 63.0149 34.7637C62.3686 34.7637 61.8331 34.976 61.4084 35.4008C60.9836 35.8163 60.7713 36.3749 60.7713 37.0766C60.7713 37.7783 60.979 38.3415 61.3945 38.7662C61.8192 39.1817 62.3594 39.3895 63.0149 39.3895C63.3935 39.3895 63.7397 39.3064 64.0536 39.1402C64.3768 38.9647 64.6446 38.7062 64.8569 38.3646L66.1865 39.1402C65.9002 39.6941 65.4801 40.1235 64.9262 40.4282C64.3814 40.7236 63.7489 40.8714 63.0288 40.8714ZM73.5014 34.8468H70.9116V40.7744H69.1804V34.8468H66.5766V33.3787H73.5014V34.8468ZM78.8567 33.2956C79.5769 33.2956 80.2186 33.4526 80.7818 33.7665C81.3543 34.0804 81.8021 34.5236 82.1252 35.0961C82.4484 35.6685 82.6099 36.3287 82.6099 37.0766C82.6099 37.8244 82.4484 38.4892 82.1252 39.0709C81.8021 39.6434 81.3543 40.0865 80.7818 40.4005C80.2186 40.7144 79.5769 40.8714 78.8567 40.8714C77.8595 40.8714 77.0701 40.539 76.4884 39.8742V43.4612H74.7572V33.3787H76.4053V34.3482C76.6915 33.9973 77.0424 33.7342 77.4579 33.5588C77.8826 33.3833 78.3489 33.2956 78.8567 33.2956ZM78.6628 39.3895C79.2999 39.3895 79.8216 39.1771 80.2278 38.7524C80.6433 38.3276 80.851 37.769 80.851 37.0766C80.851 36.3841 80.6433 35.8255 80.2278 35.4008C79.8216 34.976 79.2999 34.7637 78.6628 34.7637C78.2473 34.7637 77.8734 34.8606 77.541 35.0545C77.2086 35.2392 76.9455 35.5069 76.7516 35.8578C76.5577 36.2087 76.4607 36.6149 76.4607 37.0766C76.4607 37.5382 76.5577 37.9445 76.7516 38.2953C76.9455 38.6462 77.2086 38.9186 77.541 39.1125C77.8734 39.2971 78.2473 39.3895 78.6628 39.3895ZM87.6291 40.8714C86.8813 40.8714 86.2072 40.7098 85.6071 40.3866C85.0069 40.0635 84.5361 39.6157 84.1944 39.0432C83.862 38.4615 83.6958 37.806 83.6958 37.0766C83.6958 36.3472 83.862 35.6962 84.1944 35.1238C84.5361 34.5513 85.0069 34.1035 85.6071 33.7804C86.2072 33.4572 86.8813 33.2956 87.6291 33.2956C88.3862 33.2956 89.0649 33.4572 89.665 33.7804C90.2652 34.1035 90.7314 34.5513 91.0638 35.1238C91.4055 35.6962 91.5763 36.3472 91.5763 37.0766C91.5763 37.806 91.4055 38.4615 91.0638 39.0432C90.7314 39.6157 90.2652 40.0635 89.665 40.3866C89.0649 40.7098 88.3862 40.8714 87.6291 40.8714ZM87.6291 39.3895C88.2662 39.3895 88.7925 39.1771 89.208 38.7524C89.6235 38.3276 89.8312 37.769 89.8312 37.0766C89.8312 36.3841 89.6235 35.8255 89.208 35.4008C88.7925 34.976 88.2662 34.7637 87.6291 34.7637C86.9921 34.7637 86.4658 34.976 86.0503 35.4008C85.644 35.8255 85.4409 36.3841 85.4409 37.0766C85.4409 37.769 85.644 38.3276 86.0503 38.7524C86.4658 39.1771 86.9921 39.3895 87.6291 39.3895ZM93.2865 33.3787H95.0177V38.2538L99.1033 33.3787H100.682V40.7744H98.951V35.8994L94.8792 40.7744H93.2865V33.3787ZM96.8735 32.5062C96.1257 32.5062 95.5532 32.3354 95.1562 31.9938C94.7684 31.6429 94.5699 31.1351 94.5607 30.4703H95.7102C95.7194 30.8027 95.821 31.0658 96.0149 31.2597C96.218 31.4536 96.4996 31.5506 96.8597 31.5506C97.2105 31.5506 97.4875 31.4536 97.6907 31.2597C97.903 31.0658 98.0138 30.8027 98.0231 30.4703H99.2003C99.191 31.1351 98.9879 31.6429 98.5909 31.9938C98.1939 32.3354 97.6214 32.5062 96.8735 32.5062Z" fill="white"/>
<path fill-rule="evenodd" clip-rule="evenodd" d="M9.63021 15.6692L19.1709 6.12845L28.7116 15.6692H30.9507C33.4513 15.6692 35.4784 17.6963 35.4784 20.1968V23.9098L37.0157 22.3725C38.7839 20.6043 38.7839 17.7375 37.0157 15.9694L22.3725 1.32613C20.6043 -0.442041 17.7375 -0.442043 15.9694 1.32612L1.32613 15.9694C-0.44204 17.7375 -0.442044 20.6043 1.32612 22.3725L2.65271 23.699V20.1968C2.65271 17.6963 4.67982 15.6692 7.18038 15.6692H9.63021Z" fill="white"/>
<rect x="15.711" y="29.4578" width="6.8735" height="6.8735" rx="1.69788" fill="white"/>
<mask id="path-5-inside-1" fill="white">
<rect x="4.90967" y="18.6565" width="28.4759" height="28.4759" rx="4.52768"/>
</mask>
<rect x="4.90967" y="18.6565" width="28.4759" height="28.4759" rx="4.52768" stroke="white" stroke-width="11.3192" mask="url(#path-5-inside-1)"/>
</svg>
